<?xml version="1.0" standalone="no"?>
<!DOCTYPE svg PUBLIC "-//W3C//DTD SVG 20010904//EN"
 "http://www.w3.org/TR/2001/REC-SVG-20010904/DTD/svg10.dtd">
<svg version="1.0" xmlns="http://www.w3.org/2000/svg"
 width="1024.000000pt" height="768.000000pt" viewBox="0 0 1024.000000 768.000000"
 preserveAspectRatio="xMidYMid meet">

<g transform="translate(0.000000,768.000000) scale(0.100000,-0.100000)"
fill="#000000" stroke="none">
<path d="M0 3840 l0 -3840 5120 0 5120 0 0 3840 0 3840 -5120 0 -5120 0 0
-3840z m3819 1313 c-1 -268 -13 -580 -23 -590 -4 -5 -48 -10 -97 -11 l-89 -4
0 46 0 45 -80 -54 c-45 -30 -89 -55 -98 -55 -10 0 -55 38 -101 84 l-84 84 5
145 c3 80 10 151 14 159 5 8 32 40 59 71 l50 55 109 3 110 3 11 -33 c6 -18 14
-29 18 -25 4 4 7 69 7 144 0 75 3 140 7 143 3 4 46 7 95 7 l88 0 -1 -217z
m-599 88 l0 -88 -87 -5 c-49 -3 -94 -3 -100 0 -14 4 -19 163 -6 175 3 4 48 7
100 7 l93 0 0 -89z m-228 -103 c-2 -95 -8 -183 -13 -195 -5 -12 -39 -43 -77
-68 -66 -44 -70 -49 -76 -92 -3 -25 -6 -62 -6 -82 0 -26 -10 -50 -31 -80 -18
-23 -38 -59 -44 -79 l-13 -37 -84 -7 c-196 -15 -227 -13 -263 15 l-33 27 3 95
c2 72 0 99 -11 109 -8 8 -14 31 -14 51 0 27 -8 47 -31 73 l-31 35 7 191 c5
123 11 194 19 199 6 4 49 6 95 5 l84 -3 -2 -97 c-2 -75 1 -103 13 -120 12 -17
16 -50 16 -138 l0 -115 36 -11 c26 -9 50 -8 91 0 l57 11 4 75 c2 41 7 77 11
80 4 3 19 21 33 40 24 32 27 47 33 163 l7 127 113 0 112 0 -5 -172z m4896 120
l61 -53 0 -87 1 -88 -36 -15 c-20 -8 -51 -28 -69 -44 -33 -28 -36 -29 -156
-30 -67 -1 -125 -4 -129 -6 -4 -3 -7 -19 -5 -37 l3 -33 126 0 c111 0 129 2
137 18 8 14 24 17 88 17 l77 0 -46 -92 -47 -93 -208 -8 -208 -8 -39 38 c-82
80 -85 89 -91 276 -6 164 -5 167 16 178 12 6 44 32 70 58 46 44 51 46 120 52
40 3 118 6 173 7 l101 2 61 -52z m-682 -4 c22 -20 51 -42 67 -50 l27 -15 2
-152 c1 -83 2 -195 2 -247 l1 -95 -86 -3 c-80 -3 -86 -1 -97 20 -6 13 -16 109
-22 213 -7 105 -16 194 -20 199 -13 14 -63 -11 -101 -50 l-34 -35 0 -177 0
-177 -102 -3 -103 -3 0 195 c0 107 -3 201 -6 210 -5 12 -21 16 -65 16 l-59 0
-2 -212 -3 -213 -98 -3 -97 -3 2 288 3 288 93 3 92 3 0 -36 c0 -54 45 -45 52
10 l3 30 99 8 c98 7 126 1 126 -27 0 -16 48 -66 65 -66 8 0 38 27 67 60 51 59
54 60 104 60 45 0 56 -4 90 -36z m-1664 -56 c2 -17 10 -23 28 -23 15 0 24 5
23 13 -2 9 19 12 81 12 l83 0 7 -92 c3 -50 6 -186 6 -303 l0 -212 -59 -56 -60
-57 -64 0 c-56 0 -65 -3 -70 -20 -5 -18 -14 -20 -115 -20 l-110 0 -52 66 c-28
36 -49 68 -45 72 5 5 134 12 368 21 15 1 18 8 15 43 l-3 42 -119 -3 c-65 -1
-124 -5 -130 -7 -6 -2 -40 27 -74 65 l-62 70 0 139 0 140 68 66 67 66 107 0
c103 0 107 -1 110 -22z m776 -24 l62 -46 -2 -232 -3 -231 -80 0 c-71 0 -80 2
-77 18 4 25 -21 21 -48 -8 -22 -23 -30 -25 -119 -25 -86 0 -100 3 -133 25 -60
41 -78 80 -78 173 l0 82 40 20 c21 11 47 20 58 20 10 0 24 6 30 13 8 7 54 14
120 17 l107 5 0 35 0 35 -115 0 -115 0 -5 -29 c-4 -24 -10 -29 -35 -31 -16 -1
-42 -5 -57 -9 l-28 -8 0 61 c0 56 2 61 25 67 14 3 39 23 57 43 17 20 38 39 47
42 9 4 77 7 151 8 l135 2 63 -47z m-1280 -45 l62 -61 0 -178 c0 -173 -1 -178
-22 -193 -13 -9 -41 -32 -62 -51 l-40 -36 -164 0 -164 0 -64 51 -64 51 0 173
0 173 65 42 c41 27 65 49 65 61 0 17 11 19 118 22 64 1 137 4 162 5 43 2 48
-2 108 -59z m-698 16 c13 -14 45 -39 72 -56 l48 -31 0 -69 0 -68 -59 -41 c-33
-22 -63 -44 -66 -50 -3 -5 -41 -10 -83 -10 -42 0 -101 -3 -129 -6 l-53 -7 0
-38 0 -39 153 0 152 1 34 29 c39 33 47 32 56 -9 5 -24 -1 -38 -29 -76 -20 -25
-40 -54 -45 -63 -8 -15 -33 -17 -193 -20 l-183 -4 -68 62 -67 62 0 166 c0 92
4 172 8 177 4 6 26 23 50 39 24 16 47 36 52 45 9 16 85 25 261 29 58 2 68 -1
89 -23z m-1134 -252 c-4 -115 -9 -247 -13 -295 l-6 -88 -99 0 -100 0 6 88 c3
48 9 177 12 287 3 110 8 203 11 208 2 4 47 7 100 7 l96 0 -7 -207z m4398 -342
c7 -10 23 -435 31 -796 l5 -260 -59 -53 -59 -53 -39 25 c-21 14 -46 32 -55 40
-25 22 -29 21 -65 -28 l-32 -44 -246 -7 c-158 -5 -254 -4 -268 2 -12 6 -55 38
-96 72 -41 34 -81 67 -91 74 -24 18 -35 38 -16 31 14 -6 16 45 16 485 l0 491
120 1 c66 1 137 2 158 3 l37 1 11 -345 c7 -190 12 -382 13 -428 l1 -83 179 3
c99 2 182 6 186 10 6 6 -3 338 -20 735 l-5 122 67 4 c145 7 222 7 227 -2z
m-3594 -246 l0 -125 105 0 106 0 -3 -77 -3 -78 -106 -3 -106 -3 -6 -181 c-10
-251 -9 -328 3 -328 6 0 10 5 10 10 0 6 37 10 90 10 l90 0 0 -62 c0 -117 15
-108 -194 -108 l-181 0 -47 41 -48 41 0 289 0 289 -61 0 -62 0 7 53 c3 28 6
62 6 75 0 20 5 22 55 22 l55 0 0 125 0 124 63 4 c34 2 99 4 145 5 l82 2 0
-125z m1720 -167 c0 -150 -1 -277 0 -283 0 -5 21 11 48 37 26 25 92 82 147
128 55 45 110 90 123 101 12 10 26 19 30 19 5 0 28 17 52 37 43 37 44 38 147
41 l103 4 0 -79 c0 -48 -5 -85 -12 -95 -7 -8 -58 -49 -114 -91 -156 -119 -152
-103 -57 -195 68 -65 82 -85 96 -133 12 -38 41 -87 91 -155 41 -54 70 -100 63
-101 -7 -1 -76 -4 -155 -6 l-144 -3 -39 78 c-22 43 -37 84 -33 90 4 6 3 8 -3
5 -6 -4 -14 0 -17 9 -3 8 -2 12 3 9 5 -3 12 -1 16 5 3 5 1 10 -4 10 -6 0 -11
7 -11 16 0 8 -4 12 -10 9 -5 -3 -10 1 -10 9 0 8 -10 22 -22 30 -21 15 -21 16
-3 16 12 0 15 3 10 9 -6 6 -71 11 -145 13 l-135 3 0 -160 0 -160 -133 -3 -133
-3 1 501 1 501 25 9 c14 6 24 17 24 30 0 19 6 20 100 20 l101 0 -1 -272z
m-2262 160 l94 -91 -6 -311 c-4 -171 -9 -367 -11 -436 l-5 -125 -85 -83 -86
-84 -112 7 c-62 4 -201 8 -310 10 l-198 4 -32 27 c-17 15 -62 54 -99 88 l-68
61 0 115 c0 63 3 247 7 409 5 251 9 296 22 307 9 7 68 51 132 98 l116 85 89 4
c49 1 172 4 274 5 l185 2 93 -92z m1699 -120 l63 -62 0 -362 0 -362 -70 -7
c-38 -4 -96 -4 -129 0 -53 6 -548 -9 -628 -20 l-33 -4 0 183 0 183 85 42 c50
25 94 54 107 72 22 29 22 29 128 29 59 0 162 3 228 7 l122 6 0 85 0 85 -97 -6
c-54 -4 -150 -7 -213 -7 -63 0 -121 -4 -128 -8 -6 -5 -13 -28 -15 -53 l-2 -44
-113 -5 -112 -5 0 70 c0 67 1 71 28 83 15 6 55 39 89 72 l61 59 149 11 c81 5
168 12 193 13 25 2 85 4 135 5 l89 2 63 -62z m638 -983 c155 -71 215 -229 215
-568 0 -90 -3 -109 -25 -154 -62 -123 -233 -177 -347 -110 -85 50 -130 143
-107 222 l13 42 88 -5 c142 -8 196 23 249 143 27 62 30 157 6 202 -38 72 -115
115 -206 116 -79 0 -155 -36 -235 -113 l-63 -60 -270 0 -271 0 -51 69 c-61 82
-79 95 -155 111 -107 22 -213 -8 -279 -79 -39 -41 -47 -59 -63 -127 -10 -48
-18 -123 -18 -191 l-1 -112 35 -36 c77 -80 177 -103 280 -65 49 18 63 20 75
10 33 -28 7 -127 -47 -177 -37 -35 -92 -53 -158 -53 -133 0 -217 47 -269 151
-36 72 -38 108 -16 244 8 49 20 137 25 194 14 135 36 186 111 255 73 68 143
96 238 96 87 0 145 -18 228 -70 l67 -42 266 4 c294 5 311 8 398 71 58 43 141
68 197 61 22 -3 63 -16 90 -29z m-2848 -21 c-3 -3 -12 -4 -19 -1 -8 3 -5 6 6
6 11 1 17 -2 13 -5z m156 -1 c-18 -2 -48 -2 -65 0 -18 2 -4 4 32 4 36 0 50 -2
33 -4z m1537 -207 l0 -63 50 -5 c28 -3 52 -7 55 -10 2 -2 2 -21 -2 -41 -6 -37
-6 -37 -53 -37 l-47 0 -5 -50 c-3 -28 -7 -52 -9 -54 -2 -2 -26 -6 -54 -7 l-50
-3 -3 61 -3 62 -47 3 -47 3 0 45 c0 44 1 45 30 44 17 -1 41 -3 55 -5 24 -4 25
-1 28 46 4 72 6 75 57 75 l45 0 0 -64z m1077 38 c41 -11 40 -53 -3 -73 -53
-24 -104 -9 -104 30 0 36 54 57 107 43z m-122 -124 c17 -18 17 -21 1 -45 -22
-33 -52 -30 -79 7 -17 22 -18 30 -7 43 18 21 63 19 85 -5z m210 -30 c0 -33 -2
-35 -30 -33 -16 1 -35 10 -42 20 -18 23 11 55 46 51 22 -3 26 -8 26 -38z m-94
-76 c21 -25 -1 -49 -46 -49 -48 0 -71 28 -41 51 26 19 70 18 87 -2z m-278 -71
c25 -23 21 -58 -9 -82 -35 -28 -69 -26 -99 4 -28 27 -30 42 -12 66 31 40 82
46 120 12z m-545 -30 c32 -28 38 -67 13 -92 -40 -40 -131 -19 -131 30 0 27 49
79 75 79 12 0 32 -8 43 -17z"/>
<path d="M3451 4960 c-20 -22 -45 -56 -55 -75 l-19 -35 47 -49 c30 -33 46 -59
46 -76 0 -34 10 -32 68 14 53 42 92 90 92 113 -1 14 -122 148 -134 148 -5 0
-25 -18 -45 -40z"/>
<path d="M7633 5173 l-93 -4 0 -41 0 -41 118 7 c64 4 120 10 123 14 3 4 2 22
-3 40 -7 25 -13 32 -31 30 -12 -1 -64 -4 -114 -5z"/>
<path d="M5350 4936 c0 -63 3 -116 8 -118 4 -2 54 -1 112 2 l105 5 0 110 0
110 -112 3 -113 3 0 -115z"/>
<path d="M6027 4884 c-4 -4 -7 -25 -7 -46 l0 -39 93 3 92 3 0 40 0 40 -85 3
c-47 1 -89 0 -93 -4z"/>
<path d="M4705 5027 c-3 -7 -4 -75 -3 -151 l3 -138 120 1 c66 1 120 3 122 4 1
2 3 68 4 147 l1 145 -121 3 c-94 2 -123 0 -126 -11z"/>
<path d="M4114 5032 c-16 -2 -23 -12 -26 -33 l-5 -30 86 3 86 3 0 30 0 30 -60
0 c-33 0 -70 -1 -81 -3z"/>
<path d="M2847 3883 c-4 -124 -7 -271 -7 -325 l0 -98 213 2 212 3 3 323 3 322
-209 0 -209 0 -6 -227z"/>
<path d="M4785 3730 c-88 -4 -170 -8 -182 -9 -22 -1 -23 -5 -23 -82 l0 -82
143 7 c78 3 179 9 225 12 l82 7 0 78 0 79 -42 -2 c-24 -1 -115 -5 -203 -8z"/>
</g>
</svg>
